<?xml version="1.0" encoding="UTF-8" standalone="no"?>
<!DOCTYPE svg PUBLIC "-//W3C//DTD SVG 1.1//EN"
 "http://www.w3.org/Graphics/SVG/1.1/DTD/svg11.dtd">
<!-- Generated by graphviz version 2.47.0 (20210316.0004)
 -->
<!-- Title: dbml Pages: 1 -->
<svg width="1924pt" height="970pt"
 viewBox="0.00 0.00 1924.13 970.35" xmlns="http://www.w3.org/2000/svg" xmlns:xlink="http://www.w3.org/1999/xlink">
<g id="graph0" class="graph" transform="scale(1 1) rotate(0) translate(4 966.35)">
<title>dbml</title>
<!-- MenuItem -->
<g id="MenuItem" class="node">
<title>MenuItem</title>
<ellipse fill="none" stroke="black" stroke-width="0" cx="997.67" cy="-662.53" rx="263.09" ry="299.63"/>
<polygon fill="#1d71b8" stroke="transparent" points="813.67,-812.53 813.67,-872.53 1181.67,-872.53 1181.67,-812.53 813.67,-812.53"/>
<polygon fill="none" stroke="#29235c" points="813.67,-812.53 813.67,-872.53 1181.67,-872.53 1181.67,-812.53 813.67,-812.53"/>
<text text-anchor="start" x="864.29" y="-833.73" font-family="Helvetica,sans-Serif" font-weight="bold" font-size="32.00" fill="#ffffff"> &#160;&#160;&#160;&#160;&#160;&#160;MenuItem &#160;&#160;&#160;&#160;&#160;&#160;</text>
<polygon fill="#e7e2dd" stroke="transparent" points="813.67,-752.53 813.67,-812.53 1181.67,-812.53 1181.67,-752.53 813.67,-752.53"/>
<polygon fill="none" stroke="#29235c" points="813.67,-752.53 813.67,-812.53 1181.67,-812.53 1181.67,-752.53 813.67,-752.53"/>
<text text-anchor="start" x="824.67" y="-773.73" font-family="Helvetica,sans-Serif" font-weight="bold" font-size="32.00" fill="#29235c">id</text>
<text text-anchor="start" x="849.55" y="-773.73" font-family="Helvetica,sans-Serif" font-size="32.00" fill="#29235c"> &#160;&#160;&#160;</text>
<text text-anchor="start" x="1028.45" y="-773.73" font-family="Helvetica,sans-Serif" font-style="italic" font-size="32.00" fill="#29235c">INTEGER</text>
<polygon fill="#e7e2dd" stroke="transparent" points="813.67,-692.53 813.67,-752.53 1181.67,-752.53 1181.67,-692.53 813.67,-692.53"/>
<polygon fill="none" stroke="#29235c" points="813.67,-692.53 813.67,-752.53 1181.67,-752.53 1181.67,-692.53 813.67,-692.53"/>
<text text-anchor="start" x="824.67" y="-712.73" font-family="Helvetica,sans-Serif" font-size="32.00" fill="#29235c">name &#160;&#160;&#160;</text>
<text text-anchor="start" x="1014.24" y="-713.73" font-family="Helvetica,sans-Serif" font-style="italic" font-size="32.00" fill="#29235c">VARCHAR</text>
<polygon fill="#e7e2dd" stroke="transparent" points="813.67,-632.53 813.67,-692.53 1181.67,-692.53 1181.67,-632.53 813.67,-632.53"/>
<polygon fill="none" stroke="#29235c" points="813.67,-632.53 813.67,-692.53 1181.67,-692.53 1181.67,-632.53 813.67,-632.53"/>
<text text-anchor="start" x="824.67" y="-652.73" font-family="Helvetica,sans-Serif" font-size="32.00" fill="#29235c">price &#160;&#160;&#160;</text>
<text text-anchor="start" x="1067.55" y="-653.73" font-family="Helvetica,sans-Serif" font-style="italic" font-size="32.00" fill="#29235c">FLOAT</text>
<polygon fill="#e7e2dd" stroke="transparent" points="813.67,-572.53 813.67,-632.53 1181.67,-632.53 1181.67,-572.53 813.67,-572.53"/>
<polygon fill="none" stroke="#29235c" points="813.67,-572.53 813.67,-632.53 1181.67,-632.53 1181.67,-572.53 813.67,-572.53"/>
<text text-anchor="start" x="824.53" y="-592.73" font-family="Helvetica,sans-Serif" font-size="32.00" fill="#29235c">description &#160;&#160;&#160;</text>
<text text-anchor="start" x="1014.45" y="-593.73" font-family="Helvetica,sans-Serif" font-style="italic" font-size="32.00" fill="#29235c">VARCHAR</text>
<polygon fill="#e7e2dd" stroke="transparent" points="813.67,-512.53 813.67,-572.53 1181.67,-572.53 1181.67,-512.53 813.67,-512.53"/>
<polygon fill="none" stroke="#29235c" points="813.67,-512.53 813.67,-572.53 1181.67,-572.53 1181.67,-512.53 813.67,-512.53"/>
<text text-anchor="start" x="824.67" y="-532.73" font-family="Helvetica,sans-Serif" font-size="32.00" fill="#29235c">category_id &#160;&#160;&#160;</text>
<text text-anchor="start" x="1028.45" y="-533.73" font-family="Helvetica,sans-Serif" font-style="italic" font-size="32.00" fill="#29235c">INTEGER</text>
<polygon fill="#e7e2dd" stroke="transparent" points="813.67,-452.53 813.67,-512.53 1181.67,-512.53 1181.67,-452.53 813.67,-452.53"/>
<polygon fill="none" stroke="#29235c" points="813.67,-452.53 813.67,-512.53 1181.67,-512.53 1181.67,-452.53 813.67,-452.53"/>
<text text-anchor="start" x="824.67" y="-472.73" font-family="Helvetica,sans-Serif" font-size="32.00" fill="#29235c">photo &#160;&#160;&#160;</text>
<text text-anchor="start" x="1014.24" y="-473.73" font-family="Helvetica,sans-Serif" font-style="italic" font-size="32.00" fill="#29235c">VARCHAR</text>
<polygon fill="none" stroke="#29235c" stroke-width="2" points="812.67,-451.53 812.67,-873.53 1182.67,-873.53 1182.67,-451.53 812.67,-451.53"/>
</g>
<!-- MenuItemCategory -->
<g id="MenuItemCategory" class="node">
<title>MenuItemCategory</title>
<ellipse fill="none" stroke="black" stroke-width="0" cx="1606.42" cy="-782.53" rx="309.93" ry="130.22"/>
<polygon fill="#1d71b8" stroke="transparent" points="1389.42,-812.53 1389.42,-872.53 1823.42,-872.53 1823.42,-812.53 1389.42,-812.53"/>
<polygon fill="none" stroke="#29235c" points="1389.42,-812.53 1389.42,-872.53 1823.42,-872.53 1823.42,-812.53 1389.42,-812.53"/>
<text text-anchor="start" x="1408.15" y="-833.73" font-family="Helvetica,sans-Serif" font-weight="bold" font-size="32.00" fill="#ffffff"> &#160;&#160;&#160;&#160;&#160;&#160;MenuItemCategory &#160;&#160;&#160;&#160;&#160;&#160;</text>
<polygon fill="#e7e2dd" stroke="transparent" points="1389.42,-752.53 1389.42,-812.53 1823.42,-812.53 1823.42,-752.53 1389.42,-752.53"/>
<polygon fill="none" stroke="#29235c" points="1389.42,-752.53 1389.42,-812.53 1823.42,-812.53 1823.42,-752.53 1389.42,-752.53"/>
<text text-anchor="start" x="1400.42" y="-773.73" font-family="Helvetica,sans-Serif" font-weight="bold" font-size="32.00" fill="#29235c">id</text>
<text text-anchor="start" x="1425.31" y="-773.73" font-family="Helvetica,sans-Serif" font-size="32.00" fill="#29235c"> &#160;&#160;&#160;</text>
<text text-anchor="start" x="1670.2" y="-773.73" font-family="Helvetica,sans-Serif" font-style="italic" font-size="32.00" fill="#29235c">INTEGER</text>
<polygon fill="#e7e2dd" stroke="transparent" points="1389.42,-692.53 1389.42,-752.53 1823.42,-752.53 1823.42,-692.53 1389.42,-692.53"/>
<polygon fill="none" stroke="#29235c" points="1389.42,-692.53 1389.42,-752.53 1823.42,-752.53 1823.42,-692.53 1389.42,-692.53"/>
<text text-anchor="start" x="1400.38" y="-712.73" font-family="Helvetica,sans-Serif" font-size="32.00" fill="#29235c">category_name &#160;&#160;&#160;</text>
<text text-anchor="start" x="1656.21" y="-713.73" font-family="Helvetica,sans-Serif" font-style="italic" font-size="32.00" fill="#29235c">VARCHAR</text>
<polygon fill="none" stroke="#29235c" stroke-width="2" points="1388.42,-691.53 1388.42,-873.53 1824.42,-873.53 1824.42,-691.53 1388.42,-691.53"/>
</g>
<!-- MenuItem&#45;&gt;MenuItemCategory -->
<!-- MenuItem&#45;&gt;MenuItemCategory -->
<g id="edge2" class="edge">
<title>MenuItem:e&#45;&gt;MenuItemCategory:w</title>
<path fill="none" stroke="#29235c" stroke-width="3" d="M1182.67,-542.53C1319.6,-542.53 1251.6,-770.5 1378.13,-782.08"/>
<polygon fill="#29235c" stroke="#29235c" stroke-width="3" points="1378.28,-785.59 1388.42,-782.53 1378.59,-778.59 1378.28,-785.59"/>
<text text-anchor="middle" x="1394.64" y="-792.13" font-family="Helvetica,sans-Serif" font-size="32.00" fill="#29235c">*</text>
<text text-anchor="middle" x="1173.77" y="-513.73" font-family="Helvetica,sans-Serif" font-size="32.00" fill="#29235c">1</text>
</g>
<!-- MenuLog -->
<g id="MenuLog" class="node">
<title>MenuLog</title>
<ellipse fill="none" stroke="black" stroke-width="0" cx="349.31" cy="-722.53" rx="349.12" ry="214.92"/>
<polygon fill="#1d71b8" stroke="transparent" points="104.31,-812.53 104.31,-872.53 594.31,-872.53 594.31,-812.53 104.31,-812.53"/>
<polygon fill="none" stroke="#29235c" points="104.31,-812.53 104.31,-872.53 594.31,-872.53 594.31,-812.53 104.31,-812.53"/>
<text text-anchor="start" x="220.37" y="-833.73" font-family="Helvetica,sans-Serif" font-weight="bold" font-size="32.00" fill="#ffffff"> &#160;&#160;&#160;&#160;&#160;&#160;MenuLog &#160;&#160;&#160;&#160;&#160;&#160;</text>
<polygon fill="#e7e2dd" stroke="transparent" points="104.31,-752.53 104.31,-812.53 594.31,-812.53 594.31,-752.53 104.31,-752.53"/>
<polygon fill="none" stroke="#29235c" points="104.31,-752.53 104.31,-812.53 594.31,-812.53 594.31,-752.53 104.31,-752.53"/>
<text text-anchor="start" x="115.31" y="-773.73" font-family="Helvetica,sans-Serif" font-weight="bold" font-size="32.00" fill="#29235c">id</text>
<text text-anchor="start" x="140.2" y="-773.73" font-family="Helvetica,sans-Serif" font-size="32.00" fill="#29235c"> &#160;&#160;&#160;</text>
<text text-anchor="start" x="441.09" y="-773.73" font-family="Helvetica,sans-Serif" font-style="italic" font-size="32.00" fill="#29235c">INTEGER</text>
<polygon fill="#e7e2dd" stroke="transparent" points="104.31,-692.53 104.31,-752.53 594.31,-752.53 594.31,-692.53 104.31,-692.53"/>
<polygon fill="none" stroke="#29235c" points="104.31,-692.53 104.31,-752.53 594.31,-752.53 594.31,-692.53 104.31,-692.53"/>
<text text-anchor="start" x="115.31" y="-712.73" font-family="Helvetica,sans-Serif" font-size="32.00" fill="#29235c">menu_item_id &#160;&#160;&#160;</text>
<text text-anchor="start" x="441.09" y="-713.73" font-family="Helvetica,sans-Serif" font-style="italic" font-size="32.00" fill="#29235c">INTEGER</text>
<polygon fill="#e7e2dd" stroke="transparent" points="104.31,-632.53 104.31,-692.53 594.31,-692.53 594.31,-632.53 104.31,-632.53"/>
<polygon fill="none" stroke="#29235c" points="104.31,-632.53 104.31,-692.53 594.31,-692.53 594.31,-632.53 104.31,-632.53"/>
<text text-anchor="start" x="114.81" y="-652.73" font-family="Helvetica,sans-Serif" font-size="32.00" fill="#29235c">change_description &#160;&#160;&#160;</text>
<text text-anchor="start" x="427.1" y="-653.73" font-family="Helvetica,sans-Serif" font-style="italic" font-size="32.00" fill="#29235c">VARCHAR</text>
<polygon fill="#e7e2dd" stroke="transparent" points="104.31,-572.53 104.31,-632.53 594.31,-632.53 594.31,-572.53 104.31,-572.53"/>
<polygon fill="none" stroke="#29235c" points="104.31,-572.53 104.31,-632.53 594.31,-632.53 594.31,-572.53 104.31,-572.53"/>
<text text-anchor="start" x="115.31" y="-592.73" font-family="Helvetica,sans-Serif" font-size="32.00" fill="#29235c">change_date &#160;&#160;&#160;</text>
<text text-anchor="start" x="421.54" y="-593.73" font-family="Helvetica,sans-Serif" font-style="italic" font-size="32.00" fill="#29235c">DATETIME</text>
<polygon fill="none" stroke="#29235c" stroke-width="2" points="103.31,-571.53 103.31,-873.53 595.31,-873.53 595.31,-571.53 103.31,-571.53"/>
</g>
<!-- MenuLog&#45;&gt;MenuItem -->
<!-- MenuLog&#45;&gt;MenuItem -->
<g id="edge4" class="edge">
<title>MenuLog:e&#45;&gt;MenuItem:w</title>
<path fill="none" stroke="#29235c" stroke-width="3" d="M595.31,-722.53C692,-722.53 711.16,-778.39 802.4,-782.32"/>
<polygon fill="#29235c" stroke="#29235c" stroke-width="3" points="802.59,-785.82 812.67,-782.53 802.74,-778.82 802.59,-785.82"/>
<text text-anchor="middle" x="806.44" y="-792.13" font-family="Helvetica,sans-Serif" font-size="32.00" fill="#29235c">*</text>
<text text-anchor="middle" x="604.21" y="-732.13" font-family="Helvetica,sans-Serif" font-size="32.00" fill="#29235c">1</text>
</g>
<!-- Restaurant -->
<g id="Restaurant" class="node">
<title>Restaurant</title>
<ellipse fill="none" stroke="black" stroke-width="0" cx="997.67" cy="-172.53" rx="231.45" ry="172.57"/>
<polygon fill="#1d71b8" stroke="transparent" points="836.67,-232.53 836.67,-292.53 1159.67,-292.53 1159.67,-232.53 836.67,-232.53"/>
<polygon fill="none" stroke="#29235c" points="836.67,-232.53 836.67,-292.53 1159.67,-292.53 1159.67,-232.53 836.67,-232.53"/>
<text text-anchor="start" x="857.67" y="-253.73" font-family="Helvetica,sans-Serif" font-weight="bold" font-size="32.00" fill="#ffffff"> &#160;&#160;&#160;&#160;&#160;&#160;Restaurant &#160;&#160;&#160;&#160;&#160;&#160;</text>
<polygon fill="#e7e2dd" stroke="transparent" points="836.67,-172.53 836.67,-232.53 1159.67,-232.53 1159.67,-172.53 836.67,-172.53"/>
<polygon fill="none" stroke="#29235c" points="836.67,-172.53 836.67,-232.53 1159.67,-232.53 1159.67,-172.53 836.67,-172.53"/>
<text text-anchor="start" x="847.67" y="-193.73" font-family="Helvetica,sans-Serif" font-weight="bold" font-size="32.00" fill="#29235c">id</text>
<text text-anchor="start" x="872.55" y="-193.73" font-family="Helvetica,sans-Serif" font-size="32.00" fill="#29235c"> &#160;&#160;&#160;</text>
<text text-anchor="start" x="1006.45" y="-193.73" font-family="Helvetica,sans-Serif" font-style="italic" font-size="32.00" fill="#29235c">INTEGER</text>
<polygon fill="#e7e2dd" stroke="transparent" points="836.67,-112.53 836.67,-172.53 1159.67,-172.53 1159.67,-112.53 836.67,-112.53"/>
<polygon fill="none" stroke="#29235c" points="836.67,-112.53 836.67,-172.53 1159.67,-172.53 1159.67,-112.53 836.67,-112.53"/>
<text text-anchor="start" x="847.67" y="-132.73" font-family="Helvetica,sans-Serif" font-size="32.00" fill="#29235c">name &#160;&#160;&#160;</text>
<text text-anchor="start" x="992.24" y="-133.73" font-family="Helvetica,sans-Serif" font-style="italic" font-size="32.00" fill="#29235c">VARCHAR</text>
<polygon fill="#e7e2dd" stroke="transparent" points="836.67,-52.53 836.67,-112.53 1159.67,-112.53 1159.67,-52.53 836.67,-52.53"/>
<polygon fill="none" stroke="#29235c" points="836.67,-52.53 836.67,-112.53 1159.67,-112.53 1159.67,-52.53 836.67,-52.53"/>
<text text-anchor="start" x="847.25" y="-72.73" font-family="Helvetica,sans-Serif" font-size="32.00" fill="#29235c">location &#160;&#160;&#160;</text>
<text text-anchor="start" x="992.45" y="-73.73" font-family="Helvetica,sans-Serif" font-style="italic" font-size="32.00" fill="#29235c">VARCHAR</text>
<polygon fill="none" stroke="#29235c" stroke-width="2" points="835.17,-51.53 835.17,-293.53 1160.17,-293.53 1160.17,-51.53 835.17,-51.53"/>
</g>
<!-- RestaurantMenu -->
<g id="RestaurantMenu" class="node">
<title>RestaurantMenu</title>
<ellipse fill="none" stroke="black" stroke-width="0" cx="349.31" cy="-275.53" rx="285.84" ry="172.57"/>
<polygon fill="#1d71b8" stroke="transparent" points="149.31,-335.53 149.31,-395.53 549.31,-395.53 549.31,-335.53 149.31,-335.53"/>
<polygon fill="none" stroke="#29235c" points="149.31,-335.53 149.31,-395.53 549.31,-395.53 549.31,-335.53 149.31,-335.53"/>
<text text-anchor="start" x="168.81" y="-356.73" font-family="Helvetica,sans-Serif" font-weight="bold" font-size="32.00" fill="#ffffff"> &#160;&#160;&#160;&#160;&#160;&#160;RestaurantMenu &#160;&#160;&#160;&#160;&#160;&#160;</text>
<polygon fill="#e7e2dd" stroke="transparent" points="149.31,-275.53 149.31,-335.53 549.31,-335.53 549.31,-275.53 149.31,-275.53"/>
<polygon fill="none" stroke="#29235c" points="149.31,-275.53 149.31,-335.53 549.31,-335.53 549.31,-275.53 149.31,-275.53"/>
<text text-anchor="start" x="160.31" y="-296.73" font-family="Helvetica,sans-Serif" font-weight="bold" font-size="32.00" fill="#29235c">id</text>
<text text-anchor="start" x="185.2" y="-296.73" font-family="Helvetica,sans-Serif" font-size="32.00" fill="#29235c"> &#160;&#160;&#160;</text>
<text text-anchor="start" x="396.09" y="-296.73" font-family="Helvetica,sans-Serif" font-style="italic" font-size="32.00" fill="#29235c">INTEGER</text>
<polygon fill="#e7e2dd" stroke="transparent" points="149.31,-215.53 149.31,-275.53 549.31,-275.53 549.31,-215.53 149.31,-215.53"/>
<polygon fill="none" stroke="#29235c" points="149.31,-215.53 149.31,-275.53 549.31,-275.53 549.31,-215.53 149.31,-215.53"/>
<text text-anchor="start" x="160.31" y="-235.73" font-family="Helvetica,sans-Serif" font-size="32.00" fill="#29235c">restaurant_id &#160;&#160;&#160;</text>
<text text-anchor="start" x="396.09" y="-236.73" font-family="Helvetica,sans-Serif" font-style="italic" font-size="32.00" fill="#29235c">INTEGER</text>
<polygon fill="#e7e2dd" stroke="transparent" points="149.31,-155.53 149.31,-215.53 549.31,-215.53 549.31,-155.53 149.31,-155.53"/>
<polygon fill="none" stroke="#29235c" points="149.31,-155.53 149.31,-215.53 549.31,-215.53 549.31,-155.53 149.31,-155.53"/>
<text text-anchor="start" x="160.06" y="-175.73" font-family="Helvetica,sans-Serif" font-size="32.00" fill="#29235c">menu_item_id &#160;&#160;&#160;</text>
<text text-anchor="start" x="396.2" y="-176.73" font-family="Helvetica,sans-Serif" font-style="italic" font-size="32.00" fill="#29235c">INTEGER</text>
<polygon fill="none" stroke="#29235c" stroke-width="2" points="148.31,-154.53 148.31,-396.53 550.31,-396.53 550.31,-154.53 148.31,-154.53"/>
</g>
<!-- RestaurantMenu&#45;&gt;MenuItem -->
<!-- RestaurantMenu&#45;&gt;MenuItem -->
<g id="edge6" class="edge">
<title>RestaurantMenu:e&#45;&gt;MenuItem:w</title>
<path fill="none" stroke="#29235c" stroke-width="3" d="M550.31,-185.53C704.25,-185.53 636.95,-357.49 698.62,-498.53 751.67,-619.88 680.59,-774.15 802.34,-782.21"/>
<polygon fill="#29235c" stroke="#29235c" stroke-width="3" points="802.56,-785.71 812.67,-782.53 802.78,-778.72 802.56,-785.71"/>
<text text-anchor="middle" x="818.89" y="-792.13" font-family="Helvetica,sans-Serif" font-size="32.00" fill="#29235c">*</text>
<text text-anchor="middle" x="559.21" y="-156.73" font-family="Helvetica,sans-Serif" font-size="32.00" fill="#29235c">1</text>
</g>
<!-- RestaurantMenu&#45;&gt;Restaurant -->
<!-- RestaurantMenu&#45;&gt;Restaurant -->
<g id="edge8" class="edge">
<title>RestaurantMenu:e&#45;&gt;Restaurant:w</title>
<path fill="none" stroke="#29235c" stroke-width="3" d="M550.31,-245.53C675.06,-245.53 705.76,-204.85 825.36,-202.63"/>
<polygon fill="#29235c" stroke="#29235c" stroke-width="3" points="825.7,-206.13 835.67,-202.53 825.63,-199.13 825.7,-206.13"/>
<text text-anchor="middle" x="829.44" y="-173.73" font-family="Helvetica,sans-Serif" font-size="32.00" fill="#29235c">*</text>
<text text-anchor="middle" x="559.21" y="-216.73" font-family="Helvetica,sans-Serif" font-size="32.00" fill="#29235c">1</text>
</g>
</g>
</svg>
